<?xml version="1.0" encoding="UTF-8"?>
<svg xmlns="http://www.w3.org/2000/svg" xmlns:xlink="http://www.w3.org/1999/xlink" width="67pt" height="16pt" viewBox="0 0 67 16" version="1.1">
<g id="surface1">
<path style=" stroke:none;fill-rule:nonzero;fill:rgb(20.784314%,19.215686%,19.607843%);fill-opacity:1;" d="M 9.824219 12.710938 L 9.191406 13.347656 C 8.496094 14.039062 7.371094 14.039062 6.671875 13.347656 L 2.574219 9.242188 C 1.878906 8.542969 1.878906 7.414062 2.574219 6.71875 L 6.671875 2.613281 C 7.371094 1.917969 8.496094 1.917969 9.191406 2.613281 L 9.824219 3.246094 L 10.914062 2.152344 C 10.949219 2.121094 10.984375 2.085938 11.023438 2.054688 L 9.675781 0.707031 C 8.730469 -0.234375 7.203125 -0.234375 6.261719 0.707031 L 0.703125 6.269531 C -0.234375 7.214844 -0.234375 8.742188 0.703125 9.6875 L 6.261719 15.253906 C 7.203125 16.191406 8.730469 16.191406 9.675781 15.253906 L 11.023438 13.902344 C 10.988281 13.875 10.953125 13.84375 10.921875 13.8125 Z M 9.824219 12.710938 "/>
<path style=" stroke:none;fill-rule:nonzero;fill:rgb(20.784314%,19.215686%,19.607843%);fill-opacity:1;" d="M 17.988281 6.738281 L 17.472656 6.222656 L 13.925781 2.667969 C 13.273438 2.023438 12.238281 1.980469 11.539062 2.570312 C 11.5 2.601562 11.464844 2.632812 11.429688 2.667969 L 10.921875 3.175781 L 10.339844 3.761719 L 9.730469 4.367188 L 10.898438 5.535156 L 11.503906 4.929688 L 11.871094 4.558594 C 12.316406 4.117188 13.035156 4.117188 13.480469 4.558594 L 16.101562 7.179688 C 16.542969 7.628906 16.542969 8.347656 16.101562 8.792969 L 13.480469 11.414062 C 13.035156 11.859375 12.316406 11.859375 11.871094 11.414062 L 10.890625 10.433594 L 9.722656 11.597656 L 10.332031 12.207031 L 10.914062 12.792969 L 11.429688 13.308594 C 11.460938 13.339844 11.496094 13.367188 11.53125 13.398438 C 12.230469 13.996094 13.273438 13.957031 13.925781 13.308594 L 17.480469 9.746094 L 17.988281 9.238281 C 18.675781 8.546875 18.675781 7.429688 17.988281 6.738281 "/>
<path style=" stroke:none;fill-rule:nonzero;fill:rgb(20.784314%,19.215686%,19.607843%);fill-opacity:1;" d="M 7.136719 11.519531 L 4.429688 8.8125 C 3.972656 8.351562 3.972656 7.605469 4.429688 7.144531 L 7.136719 4.4375 C 7.597656 3.980469 8.339844 3.980469 8.800781 4.4375 L 11.503906 7.148438 C 11.960938 7.605469 11.960938 8.351562 11.503906 8.8125 L 8.800781 11.519531 C 8.339844 11.980469 7.597656 11.980469 7.136719 11.519531 "/>
<path style=" stroke:none;fill-rule:nonzero;fill:rgb(20.784314%,19.215686%,19.607843%);fill-opacity:1;" d="M 21.707031 9.136719 C 21.683594 9.371094 21.765625 9.601562 21.933594 9.765625 C 22.105469 9.890625 22.3125 9.953125 22.523438 9.945312 C 22.644531 9.945312 22.761719 9.933594 22.875 9.90625 C 23 9.878906 23.117188 9.832031 23.226562 9.777344 L 23.226562 10.394531 C 23.101562 10.464844 22.96875 10.515625 22.828125 10.550781 C 22.675781 10.585938 22.515625 10.601562 22.355469 10.601562 C 22.171875 10.601562 21.988281 10.578125 21.8125 10.527344 C 21.648438 10.480469 21.5 10.398438 21.375 10.289062 C 21.246094 10.167969 21.148438 10.023438 21.089844 9.859375 C 21.015625 9.65625 20.980469 9.445312 20.988281 9.230469 L 20.988281 6.296875 L 20.308594 6.296875 L 20.308594 5.65625 L 20.988281 5.65625 L 20.988281 4.191406 L 21.707031 4.191406 L 21.707031 5.65625 L 23.246094 5.65625 L 23.246094 6.296875 L 21.707031 6.296875 Z M 21.707031 9.136719 "/>
<path style=" stroke:none;fill-rule:nonzero;fill:rgb(20.784314%,19.215686%,19.607843%);fill-opacity:1;" d="M 27.742188 7.820312 C 27.726562 7.605469 27.679688 7.394531 27.609375 7.191406 C 27.542969 6.996094 27.441406 6.820312 27.308594 6.664062 C 27.179688 6.511719 27.023438 6.390625 26.84375 6.300781 C 26.644531 6.207031 26.425781 6.160156 26.203125 6.164062 C 26 6.164062 25.800781 6.207031 25.617188 6.292969 C 25.4375 6.375 25.277344 6.496094 25.140625 6.640625 C 25 6.792969 24.886719 6.96875 24.804688 7.160156 C 24.714844 7.371094 24.660156 7.59375 24.636719 7.820312 Z M 24.824219 9.054688 C 24.917969 9.25 25.050781 9.425781 25.210938 9.570312 C 25.363281 9.710938 25.539062 9.820312 25.734375 9.894531 C 25.929688 9.964844 26.136719 10 26.34375 10 C 26.644531 10.007812 26.941406 9.945312 27.210938 9.8125 C 27.457031 9.683594 27.683594 9.515625 27.875 9.316406 L 28.324219 9.71875 C 28.089844 9.988281 27.804688 10.214844 27.492188 10.382812 C 27.128906 10.558594 26.730469 10.644531 26.328125 10.632812 C 26.003906 10.632812 25.683594 10.570312 25.386719 10.449219 C 25.097656 10.328125 24.835938 10.152344 24.613281 9.929688 C 24.386719 9.699219 24.210938 9.425781 24.089844 9.128906 C 23.957031 8.800781 23.890625 8.449219 23.894531 8.09375 C 23.890625 7.753906 23.949219 7.417969 24.066406 7.101562 C 24.175781 6.804688 24.339844 6.527344 24.550781 6.292969 C 24.757812 6.0625 25.007812 5.878906 25.289062 5.75 C 25.582031 5.617188 25.902344 5.550781 26.222656 5.554688 C 26.554688 5.546875 26.878906 5.617188 27.179688 5.753906 C 27.457031 5.886719 27.699219 6.074219 27.894531 6.304688 C 28.09375 6.546875 28.242188 6.824219 28.335938 7.125 C 28.4375 7.449219 28.488281 7.789062 28.484375 8.128906 L 28.484375 8.234375 C 28.484375 8.273438 28.480469 8.3125 28.476562 8.355469 L 24.636719 8.355469 C 24.65625 8.597656 24.71875 8.835938 24.824219 9.054688 "/>
<path style=" stroke:none;fill-rule:nonzero;fill:rgb(20.784314%,19.215686%,19.607843%);fill-opacity:1;" d="M 32.902344 10.363281 C 32.550781 10.550781 32.152344 10.644531 31.753906 10.628906 C 31.410156 10.632812 31.074219 10.566406 30.761719 10.429688 C 30.464844 10.300781 30.199219 10.113281 29.972656 9.882812 C 29.75 9.652344 29.574219 9.378906 29.453125 9.078125 C 29.328125 8.769531 29.261719 8.4375 29.265625 8.101562 C 29.261719 7.765625 29.328125 7.433594 29.453125 7.121094 C 29.574219 6.816406 29.75 6.542969 29.972656 6.304688 C 30.199219 6.074219 30.464844 5.886719 30.761719 5.757812 C 31.074219 5.621094 31.410156 5.550781 31.753906 5.554688 C 31.964844 5.550781 32.175781 5.574219 32.382812 5.621094 C 32.558594 5.660156 32.730469 5.722656 32.898438 5.804688 C 33.050781 5.878906 33.195312 5.972656 33.328125 6.078125 C 33.457031 6.183594 33.582031 6.296875 33.695312 6.417969 L 33.214844 6.925781 C 33.027344 6.730469 32.8125 6.558594 32.582031 6.410156 C 32.328125 6.257812 32.039062 6.183594 31.742188 6.195312 C 31.507812 6.191406 31.273438 6.242188 31.058594 6.339844 C 30.847656 6.433594 30.660156 6.570312 30.503906 6.742188 C 30.34375 6.917969 30.222656 7.121094 30.136719 7.34375 C 30.046875 7.578125 30.003906 7.828125 30.007812 8.078125 C 30.003906 8.332031 30.050781 8.582031 30.140625 8.820312 C 30.226562 9.042969 30.355469 9.25 30.519531 9.425781 C 30.675781 9.59375 30.867188 9.734375 31.082031 9.828125 C 31.304688 9.925781 31.546875 9.976562 31.789062 9.972656 C 32.078125 9.976562 32.367188 9.90625 32.621094 9.765625 C 32.863281 9.628906 33.082031 9.453125 33.273438 9.25 L 33.734375 9.679688 C 33.496094 9.953125 33.214844 10.183594 32.902344 10.363281 "/>
<path style=" stroke:none;fill-rule:nonzero;fill:rgb(20.784314%,19.215686%,19.607843%);fill-opacity:1;" d="M 35.460938 10.519531 L 34.738281 10.519531 L 34.738281 3.65625 L 35.460938 3.65625 L 35.460938 6.503906 C 35.625 6.238281 35.84375 6.011719 36.097656 5.832031 C 36.402344 5.636719 36.761719 5.539062 37.121094 5.554688 C 37.390625 5.550781 37.65625 5.597656 37.90625 5.695312 C 38.125 5.785156 38.324219 5.921875 38.488281 6.097656 C 38.648438 6.273438 38.773438 6.484375 38.851562 6.710938 C 38.941406 6.964844 38.984375 7.234375 38.980469 7.5 L 38.980469 10.519531 L 38.257812 10.519531 L 38.257812 7.679688 C 38.277344 7.292969 38.15625 6.910156 37.910156 6.609375 C 37.652344 6.332031 37.289062 6.1875 36.914062 6.210938 C 36.71875 6.210938 36.519531 6.246094 36.335938 6.320312 C 36.164062 6.390625 36.003906 6.496094 35.875 6.628906 C 35.738281 6.769531 35.636719 6.933594 35.566406 7.113281 C 35.492188 7.3125 35.457031 7.523438 35.460938 7.734375 Z M 35.460938 10.519531 "/>
<path style=" stroke:none;fill-rule:nonzero;fill:rgb(20.784314%,19.215686%,19.607843%);fill-opacity:1;" d="M 42.949219 8.488281 C 42.816406 8.429688 42.675781 8.382812 42.53125 8.351562 C 42.371094 8.316406 42.207031 8.296875 42.039062 8.300781 C 41.789062 8.285156 41.535156 8.347656 41.320312 8.476562 C 41.144531 8.589844 41.046875 8.789062 41.054688 8.992188 L 41.054688 9.015625 C 41.046875 9.191406 41.128906 9.359375 41.269531 9.464844 C 41.4375 9.578125 41.632812 9.632812 41.832031 9.625 C 42.125 9.640625 42.410156 9.554688 42.644531 9.378906 C 42.84375 9.226562 42.957031 8.992188 42.949219 8.742188 Z M 42.921875 10.519531 L 42.921875 9.972656 C 42.746094 10.167969 42.53125 10.324219 42.292969 10.4375 C 42.011719 10.558594 41.707031 10.621094 41.402344 10.609375 C 41.175781 10.613281 40.949219 10.578125 40.730469 10.511719 C 40.53125 10.453125 40.34375 10.351562 40.183594 10.214844 C 40.023438 10.082031 39.898438 9.917969 39.8125 9.730469 C 39.714844 9.523438 39.671875 9.296875 39.675781 9.070312 L 39.675781 9.050781 C 39.667969 8.804688 39.71875 8.558594 39.824219 8.335938 C 39.921875 8.140625 40.066406 7.96875 40.242188 7.839844 C 40.433594 7.699219 40.652344 7.601562 40.882812 7.542969 C 41.148438 7.472656 41.425781 7.441406 41.703125 7.445312 C 41.925781 7.441406 42.152344 7.460938 42.371094 7.5 C 42.5625 7.539062 42.75 7.585938 42.929688 7.652344 L 42.929688 7.566406 C 42.949219 7.308594 42.847656 7.054688 42.660156 6.878906 C 42.425781 6.707031 42.140625 6.625 41.851562 6.644531 C 41.609375 6.640625 41.363281 6.664062 41.125 6.714844 C 40.898438 6.765625 40.679688 6.835938 40.464844 6.917969 L 40.105469 5.828125 C 40.386719 5.707031 40.675781 5.609375 40.96875 5.535156 C 41.328125 5.453125 41.691406 5.414062 42.058594 5.421875 C 42.839844 5.421875 43.410156 5.613281 43.765625 5.996094 C 44.144531 6.4375 44.335938 7.011719 44.300781 7.59375 L 44.300781 10.519531 Z M 42.921875 10.519531 "/>
<path style=" stroke:none;fill-rule:nonzero;fill:rgb(20.784314%,19.215686%,19.607843%);fill-opacity:1;" d="M 48.527344 10.519531 L 48.527344 7.714844 C 48.546875 7.441406 48.46875 7.167969 48.300781 6.949219 C 48.136719 6.773438 47.902344 6.675781 47.664062 6.691406 C 47.417969 6.679688 47.179688 6.773438 47.011719 6.949219 C 46.835938 7.164062 46.75 7.4375 46.769531 7.714844 L 46.769531 10.519531 L 45.34375 10.519531 L 45.34375 3.65625 L 46.769531 3.65625 L 46.769531 6.199219 C 46.855469 6.089844 46.941406 5.988281 47.039062 5.890625 C 47.136719 5.792969 47.246094 5.707031 47.363281 5.632812 C 47.484375 5.554688 47.617188 5.492188 47.757812 5.449219 C 47.914062 5.40625 48.078125 5.382812 48.246094 5.382812 C 48.71875 5.355469 49.179688 5.539062 49.507812 5.882812 C 49.824219 6.269531 49.984375 6.757812 49.953125 7.253906 L 49.953125 10.519531 Z M 48.527344 10.519531 "/>
<path style=" stroke:none;fill-rule:nonzero;fill:rgb(20.784314%,19.215686%,19.607843%);fill-opacity:1;" d="M 53.972656 6.828125 C 53.785156 6.628906 53.519531 6.519531 53.25 6.53125 C 52.976562 6.519531 52.710938 6.625 52.519531 6.824219 C 52.324219 7.042969 52.199219 7.3125 52.160156 7.605469 L 54.308594 7.605469 C 54.28125 7.316406 54.160156 7.046875 53.972656 6.828125 M 55.695312 8.316406 C 55.691406 8.367188 55.6875 8.429688 55.679688 8.496094 L 52.179688 8.496094 C 52.226562 8.785156 52.378906 9.050781 52.605469 9.234375 C 52.835938 9.40625 53.121094 9.492188 53.40625 9.484375 C 53.628906 9.488281 53.84375 9.445312 54.046875 9.363281 C 54.261719 9.261719 54.457031 9.128906 54.628906 8.964844 L 55.445312 9.6875 C 55.210938 9.980469 54.917969 10.21875 54.582031 10.382812 C 54.207031 10.554688 53.800781 10.640625 53.390625 10.632812 C 53.03125 10.632812 52.675781 10.570312 52.34375 10.441406 C 52.03125 10.324219 51.746094 10.140625 51.507812 9.90625 C 51.269531 9.671875 51.085938 9.394531 50.957031 9.085938 C 50.824219 8.75 50.757812 8.386719 50.761719 8.027344 L 50.761719 8.007812 C 50.757812 7.660156 50.820312 7.316406 50.945312 6.992188 C 51.058594 6.683594 51.234375 6.402344 51.457031 6.15625 C 51.675781 5.917969 51.941406 5.726562 52.238281 5.59375 C 52.558594 5.453125 52.902344 5.382812 53.25 5.386719 C 53.625 5.375 53.996094 5.453125 54.335938 5.609375 C 54.632812 5.753906 54.894531 5.960938 55.101562 6.21875 C 55.308594 6.476562 55.460938 6.773438 55.554688 7.089844 C 55.652344 7.425781 55.699219 7.773438 55.699219 8.121094 L 55.699219 8.140625 C 55.699219 8.207031 55.695312 8.269531 55.691406 8.316406 "/>
<path style=" stroke:none;fill-rule:nonzero;fill:rgb(20.784314%,19.215686%,19.607843%);fill-opacity:1;" d="M 59.546875 8.488281 C 59.414062 8.429688 59.273438 8.382812 59.128906 8.351562 C 58.96875 8.316406 58.800781 8.296875 58.636719 8.300781 C 58.382812 8.285156 58.132812 8.347656 57.914062 8.476562 C 57.742188 8.589844 57.644531 8.789062 57.652344 8.992188 L 57.652344 9.015625 C 57.644531 9.191406 57.722656 9.359375 57.867188 9.464844 C 58.03125 9.578125 58.230469 9.632812 58.429688 9.625 C 58.722656 9.640625 59.007812 9.554688 59.242188 9.378906 C 59.441406 9.226562 59.554688 8.992188 59.546875 8.742188 Z M 59.519531 10.519531 L 59.519531 9.972656 C 59.34375 10.167969 59.128906 10.324219 58.890625 10.4375 C 58.609375 10.558594 58.304688 10.621094 58 10.609375 C 57.769531 10.613281 57.546875 10.578125 57.328125 10.511719 C 57.128906 10.453125 56.941406 10.351562 56.777344 10.214844 C 56.621094 10.082031 56.496094 9.917969 56.40625 9.730469 C 56.3125 9.523438 56.265625 9.296875 56.269531 9.070312 L 56.269531 9.050781 C 56.265625 8.804688 56.316406 8.558594 56.421875 8.335938 C 56.519531 8.140625 56.660156 7.96875 56.839844 7.839844 C 57.03125 7.699219 57.246094 7.601562 57.476562 7.542969 C 57.746094 7.472656 58.023438 7.441406 58.296875 7.445312 C 58.523438 7.441406 58.746094 7.460938 58.96875 7.5 C 59.15625 7.539062 59.34375 7.585938 59.527344 7.652344 L 59.527344 7.566406 C 59.546875 7.308594 59.445312 7.054688 59.257812 6.878906 C 59.023438 6.707031 58.738281 6.625 58.449219 6.644531 C 58.203125 6.640625 57.960938 6.664062 57.722656 6.714844 C 57.496094 6.765625 57.273438 6.835938 57.058594 6.917969 L 56.703125 5.828125 C 56.980469 5.707031 57.269531 5.609375 57.566406 5.535156 C 57.921875 5.453125 58.289062 5.414062 58.65625 5.421875 C 59.4375 5.421875 60.007812 5.613281 60.363281 5.996094 C 60.742188 6.4375 60.933594 7.011719 60.898438 7.59375 L 60.898438 10.519531 Z M 59.519531 10.519531 "/>
<path style=" stroke:none;fill-rule:nonzero;fill:rgb(20.784314%,19.215686%,19.607843%);fill-opacity:1;" d="M 65.59375 7.988281 C 65.59375 7.792969 65.5625 7.601562 65.492188 7.417969 C 65.433594 7.253906 65.34375 7.101562 65.230469 6.972656 C 65.125 6.851562 64.992188 6.753906 64.84375 6.6875 C 64.695312 6.621094 64.535156 6.585938 64.371094 6.589844 C 64.207031 6.585938 64.046875 6.621094 63.898438 6.6875 C 63.75 6.753906 63.617188 6.851562 63.507812 6.972656 C 63.390625 7.101562 63.300781 7.25 63.242188 7.410156 C 63.171875 7.597656 63.140625 7.792969 63.140625 7.988281 L 63.140625 8.007812 C 63.140625 8.203125 63.171875 8.398438 63.242188 8.582031 C 63.300781 8.746094 63.390625 8.894531 63.507812 9.027344 C 63.617188 9.144531 63.75 9.242188 63.898438 9.308594 C 64.046875 9.375 64.207031 9.410156 64.371094 9.410156 C 64.535156 9.410156 64.695312 9.375 64.84375 9.308594 C 64.992188 9.242188 65.125 9.148438 65.230469 9.027344 C 65.34375 8.894531 65.433594 8.742188 65.492188 8.582031 C 65.5625 8.398438 65.59375 8.203125 65.59375 8.007812 Z M 65.574219 10.519531 L 65.574219 9.800781 C 65.402344 10.035156 65.1875 10.230469 64.941406 10.382812 C 64.65625 10.546875 64.332031 10.625 64.007812 10.613281 C 63.714844 10.613281 63.421875 10.554688 63.152344 10.441406 C 62.875 10.328125 62.625 10.15625 62.417969 9.941406 C 62.199219 9.703125 62.023438 9.425781 61.90625 9.121094 C 61.773438 8.765625 61.707031 8.386719 61.714844 8.007812 L 61.714844 7.988281 C 61.707031 7.609375 61.773438 7.230469 61.90625 6.875 C 62.023438 6.574219 62.195312 6.296875 62.414062 6.058594 C 62.617188 5.839844 62.867188 5.667969 63.140625 5.554688 C 63.417969 5.441406 63.710938 5.382812 64.007812 5.386719 C 64.335938 5.371094 64.660156 5.449219 64.949219 5.609375 C 65.183594 5.746094 65.394531 5.925781 65.574219 6.132812 L 65.574219 3.65625 L 67 3.65625 L 67 10.519531 Z M 65.574219 10.519531 "/>
</g>
</svg>
